                        <svg
                        xmlns="http://www.w3.org/2000/svg" viewBox="0 0 512 512" width="50" height="50">
                        <g id="Outline">
                            <path
                                d="M440,249.686,323.314,133,357.99,98.324,346.677,87.01,162.343,271.343a8,8,0,0,0,0,11.314,53.318,53.318,0,0,0,75.314,0l11.763-11.763a82.256,82.256,0,0,0,64.716,3.556l81.577,81.577A14.631,14.631,0,0,1,379.789,379.9a14.69,14.69,0,0,1-4.762-3.183l-57.37-57.37-11.314,11.314,57.37,57.37A14.631,14.631,0,0,1,347.789,411.9a14.69,14.69,0,0,1-4.762-3.183l-57.37-57.37-11.314,11.314,57.37,57.37A14.631,14.631,0,0,1,315.789,443.9a14.69,14.69,0,0,1-4.762-3.183l-57.37-57.37-11.314,11.314,57.37,57.37A14.631,14.631,0,0,1,283.789,475.9a14.69,14.69,0,0,1-4.762-3.183L99.314,293,216,176.314l8.843,8.843,11.314-11.314-158.5-158.5L66.343,26.657,172.686,133,56,249.686,13.657,207.343,2.343,218.657,140.686,357l-19.713,19.713a14.609,14.609,0,0,1-20.693-.007,14.809,14.809,0,0,1,.007-20.679l9.37-9.37L98.343,335.343l-9.37,9.37A30.63,30.63,0,0,0,110.63,397c.469,0,.937-.013,1.4-.034-.021.466-.034.934-.034,1.4A30.636,30.636,0,0,0,142.63,429c.469,0,.937-.013,1.4-.034-.021.466-.034.934-.034,1.4A30.636,30.636,0,0,0,174.63,461c.469,0,.937-.013,1.4-.034-.021.466-.034.934-.034,1.4a30.623,30.623,0,0,0,52.287,21.657L248,464.314l19.713,19.713A30.63,30.63,0,0,0,320,462.37c0-.47-.013-.938-.034-1.4.467.021.935.034,1.4.034A30.636,30.636,0,0,0,352,430.37c0-.47-.013-.938-.034-1.4.467.021.935.034,1.4.034A30.636,30.636,0,0,0,384,398.37c0-.47-.013-.938-.034-1.4.467.021.935.034,1.4.034a30.628,30.628,0,0,0,21.657-52.287l-77.7-77.7c.644-.4,1.286-.811,1.921-1.235l9.187-6.125-8.876-13.312-9.187,6.125a66,66,0,0,1-70.259,1.671,8,8,0,0,0-9.773,1.2l-16,16a37.326,37.326,0,0,1-46.418,5.046L280,176.314,396.686,293l-10.343,10.343,11.314,11.314,96-96-11.314-11.314ZM67.314,261,184,144.314,204.686,165,88,281.687Zm85.659,147.713a14.8,14.8,0,0,1-4.751,3.114,14.592,14.592,0,0,1-15.935-23.8L152,368.314,172.686,389Zm32,32a14.04,14.04,0,0,1-4.755,3.109,14.588,14.588,0,0,1-15.931-23.8L184,400.314,204.686,421Zm32,32a14.627,14.627,0,1,1-20.686-20.686L216,432.314,236.686,453ZM408,281.687,291.314,165,312,144.314,428.686,261ZM418.343,15.343l11.314,11.314L368.99,87.324,357.677,76.01ZM440,213a24,24,0,1,0-24-24A24.027,24.027,0,0,0,440,213Zm0-32a8,8,0,1,1-8,8A8.009,8.009,0,0,1,440,181ZM80,189a24,24,0,1,0-24,24A24.027,24.027,0,0,0,80,189Zm-32,0a8,8,0,1,1,8,8A8.009,8.009,0,0,1,48,189ZM96,421v16a56.063,56.063,0,0,1-56-56H56A40.045,40.045,0,0,0,96,421Zm344-40h16a56.063,56.063,0,0,1-56,56V421A40.045,40.045,0,0,0,440,381Z">
                            </path>
                        </g>
                    </svg>
